<svg width="245" height="49" viewBox="0 0 245 49" fill="none" xmlns="http://www.w3.org/2000/svg">
<g id="Group 33818">
<g id="Slid to-do">
<path d="M79.989 13.3692H69.5794C68.6269 13.3692 67.7765 13.7098 67.028 14.3909C66.2796 15.0721 65.8544 15.8894 65.7524 16.843C65.6163 17.8307 65.8374 18.6651 66.4157 19.3462C66.994 19.9933 67.7594 20.3169 68.712 20.3169H69.0692C70.4979 20.3169 71.8076 20.5893 72.9983 21.1342C74.1889 21.6791 75.1925 22.4284 76.0089 23.382C76.8594 24.3015 77.4717 25.3914 77.8459 26.6515C78.2541 27.9116 78.3732 29.2568 78.2031 30.6872C78.033 32.1176 77.5908 33.4799 76.8764 34.7741C76.196 36.0342 75.3285 37.141 74.274 38.0946C73.2194 39.0142 72.0287 39.7464 70.702 40.2913C69.3753 40.8362 67.9976 41.1087 66.5688 41.1087H56.1592L56.9756 34.161H67.3852C68.3378 34.161 69.1882 33.8375 69.9366 33.1904C70.719 32.5093 71.1783 31.6749 71.3144 30.6872C71.4164 29.7336 71.1613 28.9333 70.549 28.2862C69.9706 27.6051 69.2052 27.2645 68.2527 27.2645H67.8955C66.4667 27.2645 65.157 26.992 63.9664 26.4471C62.7758 25.9022 61.7722 25.17 60.9558 24.2504C60.1393 23.2968 59.527 22.19 59.1188 20.9299C58.7446 19.6357 58.6425 18.2734 58.8126 16.843C58.9827 15.4126 59.4079 14.0674 60.0883 12.8073C60.8027 11.5472 61.6872 10.4573 62.7417 9.53779C63.7963 8.58419 64.9869 7.83494 66.3137 7.29002C67.6404 6.74511 69.0181 6.47266 70.4469 6.47266H80.8565L79.989 13.3692Z" fill="#1F2937"/>
<path d="M91.0114 6.47266L86.7761 41.1087H79.8364L84.0717 6.47266H91.0114Z" fill="#1F2937"/>
<path d="M100.555 15.7191L97.4425 41.1087H90.5537L93.6664 15.7191H100.555ZM101.678 6.52374L100.81 13.4203H93.9216L94.789 6.52374H101.678Z" fill="#1F2937"/>
<path d="M126.577 6.47266L122.342 41.1087H107.595C106.642 41.1087 105.758 40.9384 104.942 40.5978C104.159 40.2232 103.496 39.7294 102.951 39.1163C102.407 38.4693 101.999 37.737 101.727 36.9197C101.489 36.0682 101.421 35.1657 101.523 34.2121L102.645 24.9656C102.815 23.7055 103.207 22.5135 103.819 21.3896C104.431 20.2658 105.197 19.2781 106.115 18.4267C107.068 17.5753 108.122 16.9111 109.279 16.4343C110.47 15.9575 111.711 15.7191 113.004 15.7191H118.566L119.688 6.47266H126.577ZM116.27 34.2121L117.698 22.6668H112.136C111.49 22.6668 110.912 22.8882 110.401 23.3309C109.891 23.7736 109.602 24.3186 109.534 24.9656L108.718 31.8622L108.411 34.2121H116.27Z" fill="#1F2937"/>
<path d="M154.322 34.2121L153.505 41.1087H150.24C148.981 41.1087 147.824 40.8703 146.77 40.3935C145.715 39.9167 144.814 39.2526 144.065 38.4011C143.317 37.5497 142.773 36.5791 142.432 35.4893C142.092 34.3654 142.007 33.1564 142.177 31.8622L143.3 22.6668H141.718L142.586 15.7191H144.167L144.422 13.4203L145.29 6.47266H152.179L151.311 13.4203L151.056 15.7191H156.618L155.751 22.6668H150.189L149.066 31.8622C148.998 32.5093 149.151 33.0712 149.525 33.548C149.933 33.9908 150.444 34.2121 151.056 34.2121H154.322Z" fill="#3B82F6"/>
<path d="M180.148 24.9656L179.332 31.9133C179.162 33.1734 178.77 34.3654 178.158 35.4893C177.546 36.6132 176.763 37.6008 175.811 38.4522C174.892 39.2696 173.838 39.9167 172.647 40.3935C171.49 40.8703 170.283 41.1087 169.024 41.1087H165.146C163.887 41.1087 162.731 40.8703 161.676 40.3935C160.622 39.9167 159.72 39.2696 158.972 38.4522C158.223 37.6008 157.679 36.6132 157.339 35.4893C156.999 34.3654 156.914 33.1734 157.084 31.9133L157.9 24.9656C158.07 23.7055 158.461 22.5135 159.074 21.3896C159.686 20.2658 160.452 19.2951 161.37 18.4778C162.323 17.6263 163.377 16.9622 164.534 16.4854C165.724 16.0086 166.949 15.7702 168.208 15.7702H172.086C173.344 15.7702 174.501 16.0086 175.556 16.4854C176.644 16.9622 177.546 17.6263 178.26 18.4778C179.009 19.2951 179.553 20.2658 179.893 21.3896C180.233 22.5135 180.318 23.7055 180.148 24.9656ZM172.443 31.9133L173.259 24.9656C173.327 24.3186 173.157 23.7736 172.749 23.3309C172.375 22.8882 171.882 22.6668 171.269 22.6668H167.391C166.745 22.6668 166.167 22.8882 165.656 23.3309C165.146 23.7736 164.857 24.3186 164.789 24.9656L163.972 31.9133C163.904 32.5604 164.057 33.1053 164.432 33.548C164.806 33.9908 165.316 34.2121 165.963 34.2121H169.841C170.453 34.2121 171.014 33.9908 171.525 33.548C172.069 33.1053 172.375 32.5604 172.443 31.9133Z" fill="#3B82F6"/>
<path d="M180.436 29.5123L181.354 25.3743H193.397L192.478 29.5123H186.457H180.436Z" fill="#3B82F6"/>
<path d="M222.354 6.47266L218.118 41.1087H203.371C202.419 41.1087 201.534 40.9384 200.718 40.5978C199.935 40.2232 199.272 39.7294 198.728 39.1163C198.183 38.4693 197.775 37.737 197.503 36.9197C197.265 36.0682 197.197 35.1657 197.299 34.2121L198.422 24.9656C198.592 23.7055 198.983 22.5135 199.595 21.3896C200.208 20.2658 200.973 19.2781 201.891 18.4267C202.844 17.5753 203.899 16.9111 205.055 16.4343C206.246 15.9575 207.488 15.7191 208.78 15.7191H214.342L215.465 6.47266H222.354ZM212.046 34.2121L213.475 22.6668H207.913C207.266 22.6668 206.688 22.8882 206.178 23.3309C205.668 23.7736 205.378 24.3186 205.31 24.9656L204.494 31.8622L204.188 34.2121H212.046Z" fill="#3B82F6"/>
<path d="M244.73 24.9656L243.913 31.9133C243.743 33.1734 243.352 34.3654 242.74 35.4893C242.128 36.6132 241.345 37.6008 240.393 38.4522C239.474 39.2696 238.42 39.9167 237.229 40.3935C236.072 40.8703 234.865 41.1087 233.606 41.1087H229.728C228.469 41.1087 227.312 40.8703 226.258 40.3935C225.203 39.9167 224.302 39.2696 223.553 38.4522C222.805 37.6008 222.261 36.6132 221.921 35.4893C221.58 34.3654 221.495 33.1734 221.665 31.9133L222.482 24.9656C222.652 23.7055 223.043 22.5135 223.656 21.3896C224.268 20.2658 225.033 19.2951 225.952 18.4778C226.904 17.6263 227.959 16.9622 229.115 16.4854C230.306 16.0086 231.531 15.7702 232.789 15.7702H236.668C237.926 15.7702 239.083 16.0086 240.137 16.4854C241.226 16.9622 242.128 17.6263 242.842 18.4778C243.59 19.2951 244.135 20.2658 244.475 21.3896C244.815 22.5135 244.9 23.7055 244.73 24.9656ZM237.025 31.9133L237.841 24.9656C237.909 24.3186 237.739 23.7736 237.331 23.3309C236.957 22.8882 236.463 22.6668 235.851 22.6668H231.973C231.327 22.6668 230.748 22.8882 230.238 23.3309C229.728 23.7736 229.439 24.3186 229.371 24.9656L228.554 31.9133C228.486 32.5604 228.639 33.1053 229.013 33.548C229.388 33.9908 229.898 34.2121 230.544 34.2121H234.422C235.035 34.2121 235.596 33.9908 236.106 33.548C236.651 33.1053 236.957 32.5604 237.025 31.9133Z" fill="#3B82F6"/>
</g>
<g id="Group 33737">
<rect id="Rectangle 6226" x="32.0542" y="5.56641" width="9.14054" height="39.1737" rx="3.91737" fill="#1D4ED8"/>
<path id="Rectangle 6225" d="M0.714355 12.3674C0.714355 9.91931 2.41466 7.79968 4.80446 7.26861L29.6145 1.75527C32.8764 1.03039 35.9707 3.51255 35.9707 6.85406V42.3778C35.9707 45.6435 33.0075 48.1083 29.7965 47.5137L4.98644 42.9192C2.51066 42.4608 0.714355 40.3013 0.714355 37.7834V12.3674Z" fill="#3B82F6"/>
<path id="Vector 684" d="M11.1611 23.1948L15.0785 27.7651L22.9133 18.6245" stroke="#F8FAFC" stroke-width="3.1339" stroke-linecap="round" stroke-linejoin="round"/>
</g>
</g>
</svg>
