<svg width="64" height="64" viewBox="0 0 64 64" fill="none" xmlns="http://www.w3.org/2000/svg">
<g id="Frame 2609240">
<rect id="Rectangle 6222" width="64" height="64" rx="12" fill="#EFF6FF"/>
<g id="Group 33735">
<path id="Union" fill-rule="evenodd" clip-rule="evenodd" d="M33.4572 50.4855C42.4324 50.4855 49.7083 43.2096 49.7083 34.2343C49.7083 25.2591 42.4324 17.9832 33.4572 17.9832C27.2735 17.9832 21.8965 21.4368 19.1498 26.5205C18.9196 26.8532 18.6628 27.3165 18.3803 27.826C17.598 29.2369 16.6192 31.0024 15.4646 31.3323C14.3038 31.664 13.5802 32.1533 14.1606 33.8945C14.6907 35.485 19.1531 46.7413 27.8443 49.4902C29.5937 50.134 31.4844 50.4855 33.4572 50.4855Z" fill="#F5C2D0"/>
<path id="Intersect" fill-rule="evenodd" clip-rule="evenodd" d="M22.6787 22.0903C26.516 22.6462 33.3985 24.1294 38.8279 30.4119C44.1382 36.5567 44.3441 39.9959 44.6461 45.0385C44.6646 45.3476 44.6834 45.6626 44.7039 45.9847C47.795 43.0263 49.7201 38.8593 49.7201 34.2426C49.7201 25.2674 42.4442 17.9915 33.4689 17.9915C29.3278 17.9915 25.5485 19.5403 22.6787 22.0903Z" fill="#1E293B"/>
<path id="Vector 679" d="M49.6447 31.5728L13.4227 19.5035C12.951 19.3164 12.3557 18.0312 14.8376 17.5388C16.2524 17.2582 20.4973 18.0066 21.9122 18.9422C24.5534 15.7611 32.1563 10.4095 41.4382 14.4513C50.7201 18.4931 50.7767 27.5497 49.6447 31.5728Z" fill="#2563EB"/>
<ellipse id="Ellipse 218" cx="24.027" cy="30.4121" rx="1.1608" ry="1.7412" transform="rotate(-0.774191 24.027 30.4121)" fill="#334155"/>
<circle id="Ellipse 219" cx="42.5999" cy="35.0552" r="4.0628" fill="#F5C2D0"/>
</g>
</g>
</svg>
